<mxfile host="app.diagrams.net" modified="2024-01-02T12:35:36.368Z" agent="Mozilla/5.0 (Macintosh; Intel Mac OS X 10_15_7) AppleWebKit/605.1.15 (KHTML, like Gecko) Version/16.2 Safari/605.1.15" etag="CnUv3Enz8ujOwMmPjxeB" version="22.1.16" type="device">
  <diagram name="Page-1" id="80Xx5_V7AYoYYCBFcPBS">
    <mxGraphModel dx="627" dy="518" grid="1" gridSize="10" guides="1" tooltips="1" connect="1" arrows="1" fold="1" page="1" pageScale="1" pageWidth="850" pageHeight="1100" math="0" shadow="0">
      <root>
        <mxCell id="0" />
        <mxCell id="1" parent="0" />
        <mxCell id="6V_RxtZbmtCBJ1EOpkRF-196" value="" style="ellipse;html=1;shape=startState;fillColor=#000000;strokeColor=#ff0000;" vertex="1" parent="1">
          <mxGeometry x="220" y="60" width="30" height="30" as="geometry" />
        </mxCell>
        <mxCell id="6V_RxtZbmtCBJ1EOpkRF-197" value="" style="edgeStyle=orthogonalEdgeStyle;html=1;verticalAlign=bottom;endArrow=open;endSize=8;strokeColor=#ff0000;rounded=0;" edge="1" source="6V_RxtZbmtCBJ1EOpkRF-196" parent="1">
          <mxGeometry relative="1" as="geometry">
            <mxPoint x="235" y="150" as="targetPoint" />
          </mxGeometry>
        </mxCell>
        <mxCell id="6V_RxtZbmtCBJ1EOpkRF-199" value="新建区域时检查资源是否足够" style="strokeWidth=2;html=1;shape=mxgraph.flowchart.terminator;whiteSpace=wrap;" vertex="1" parent="1">
          <mxGeometry x="185" y="150" width="100" height="60" as="geometry" />
        </mxCell>
        <mxCell id="6V_RxtZbmtCBJ1EOpkRF-258" value="新建Gold过滤器" style="strokeWidth=2;html=1;shape=mxgraph.flowchart.terminator;whiteSpace=wrap;" vertex="1" parent="1">
          <mxGeometry x="15" y="250" width="100" height="60" as="geometry" />
        </mxCell>
        <mxCell id="6V_RxtZbmtCBJ1EOpkRF-259" value="新建Wood过滤器" style="strokeWidth=2;html=1;shape=mxgraph.flowchart.terminator;whiteSpace=wrap;" vertex="1" parent="1">
          <mxGeometry x="130" y="250" width="100" height="60" as="geometry" />
        </mxCell>
        <mxCell id="6V_RxtZbmtCBJ1EOpkRF-260" value="新建Copper过滤器" style="strokeWidth=2;html=1;shape=mxgraph.flowchart.terminator;whiteSpace=wrap;" vertex="1" parent="1">
          <mxGeometry x="245" y="250" width="105" height="60" as="geometry" />
        </mxCell>
        <mxCell id="6V_RxtZbmtCBJ1EOpkRF-261" value="新建Iron过滤器" style="strokeWidth=2;html=1;shape=mxgraph.flowchart.terminator;whiteSpace=wrap;" vertex="1" parent="1">
          <mxGeometry x="367" y="250" width="100" height="60" as="geometry" />
        </mxCell>
        <mxCell id="6V_RxtZbmtCBJ1EOpkRF-266" value="组合过滤器并过滤" style="strokeWidth=2;html=1;shape=mxgraph.flowchart.terminator;whiteSpace=wrap;" vertex="1" parent="1">
          <mxGeometry x="185" y="360" width="100" height="60" as="geometry" />
        </mxCell>
        <mxCell id="6V_RxtZbmtCBJ1EOpkRF-272" value="" style="edgeStyle=orthogonalEdgeStyle;rounded=0;orthogonalLoop=1;jettySize=auto;html=1;exitX=0.5;exitY=1;exitDx=0;exitDy=0;exitPerimeter=0;entryX=0.5;entryY=0;entryDx=0;entryDy=0;" edge="1" parent="1">
          <mxGeometry relative="1" as="geometry">
            <mxPoint x="235.0000000000001" y="420" as="sourcePoint" />
            <mxPoint x="235.0000000000001" y="450" as="targetPoint" />
          </mxGeometry>
        </mxCell>
        <mxCell id="6V_RxtZbmtCBJ1EOpkRF-279" style="edgeStyle=orthogonalEdgeStyle;rounded=0;orthogonalLoop=1;jettySize=auto;html=1;exitX=0;exitY=0.5;exitDx=0;exitDy=0;exitPerimeter=0;entryX=0.5;entryY=0;entryDx=0;entryDy=0;entryPerimeter=0;" edge="1" parent="1" source="6V_RxtZbmtCBJ1EOpkRF-199" target="6V_RxtZbmtCBJ1EOpkRF-258">
          <mxGeometry relative="1" as="geometry" />
        </mxCell>
        <mxCell id="6V_RxtZbmtCBJ1EOpkRF-280" value="新建Stone过滤器" style="strokeWidth=2;html=1;shape=mxgraph.flowchart.terminator;whiteSpace=wrap;" vertex="1" parent="1">
          <mxGeometry x="480" y="250" width="100" height="60" as="geometry" />
        </mxCell>
        <mxCell id="6V_RxtZbmtCBJ1EOpkRF-281" style="edgeStyle=orthogonalEdgeStyle;rounded=0;orthogonalLoop=1;jettySize=auto;html=1;exitX=1;exitY=0.5;exitDx=0;exitDy=0;exitPerimeter=0;entryX=0;entryY=0.5;entryDx=0;entryDy=0;entryPerimeter=0;" edge="1" parent="1" source="6V_RxtZbmtCBJ1EOpkRF-258" target="6V_RxtZbmtCBJ1EOpkRF-259">
          <mxGeometry relative="1" as="geometry" />
        </mxCell>
        <mxCell id="6V_RxtZbmtCBJ1EOpkRF-282" style="edgeStyle=orthogonalEdgeStyle;rounded=0;orthogonalLoop=1;jettySize=auto;html=1;exitX=1;exitY=0.5;exitDx=0;exitDy=0;exitPerimeter=0;entryX=0;entryY=0.5;entryDx=0;entryDy=0;entryPerimeter=0;" edge="1" parent="1" source="6V_RxtZbmtCBJ1EOpkRF-259" target="6V_RxtZbmtCBJ1EOpkRF-260">
          <mxGeometry relative="1" as="geometry" />
        </mxCell>
        <mxCell id="6V_RxtZbmtCBJ1EOpkRF-283" style="edgeStyle=orthogonalEdgeStyle;rounded=0;orthogonalLoop=1;jettySize=auto;html=1;exitX=1;exitY=0.5;exitDx=0;exitDy=0;exitPerimeter=0;entryX=0;entryY=0.5;entryDx=0;entryDy=0;entryPerimeter=0;" edge="1" parent="1" source="6V_RxtZbmtCBJ1EOpkRF-260" target="6V_RxtZbmtCBJ1EOpkRF-261">
          <mxGeometry relative="1" as="geometry" />
        </mxCell>
        <mxCell id="6V_RxtZbmtCBJ1EOpkRF-284" style="edgeStyle=orthogonalEdgeStyle;rounded=0;orthogonalLoop=1;jettySize=auto;html=1;exitX=1;exitY=0.5;exitDx=0;exitDy=0;exitPerimeter=0;entryX=0;entryY=0.5;entryDx=0;entryDy=0;entryPerimeter=0;" edge="1" parent="1" source="6V_RxtZbmtCBJ1EOpkRF-261" target="6V_RxtZbmtCBJ1EOpkRF-280">
          <mxGeometry relative="1" as="geometry" />
        </mxCell>
        <mxCell id="6V_RxtZbmtCBJ1EOpkRF-285" style="edgeStyle=orthogonalEdgeStyle;rounded=0;orthogonalLoop=1;jettySize=auto;html=1;exitX=1;exitY=0.5;exitDx=0;exitDy=0;exitPerimeter=0;entryX=1;entryY=0.5;entryDx=0;entryDy=0;entryPerimeter=0;" edge="1" parent="1" source="6V_RxtZbmtCBJ1EOpkRF-280" target="6V_RxtZbmtCBJ1EOpkRF-266">
          <mxGeometry relative="1" as="geometry" />
        </mxCell>
        <mxCell id="6V_RxtZbmtCBJ1EOpkRF-288" style="edgeStyle=orthogonalEdgeStyle;rounded=0;orthogonalLoop=1;jettySize=auto;html=1;exitX=0.5;exitY=1;exitDx=0;exitDy=0;exitPerimeter=0;entryX=0.5;entryY=0;entryDx=0;entryDy=0;" edge="1" parent="1" source="6V_RxtZbmtCBJ1EOpkRF-286" target="6V_RxtZbmtCBJ1EOpkRF-287">
          <mxGeometry relative="1" as="geometry" />
        </mxCell>
        <mxCell id="6V_RxtZbmtCBJ1EOpkRF-286" value="返回判断结果" style="strokeWidth=2;html=1;shape=mxgraph.flowchart.terminator;whiteSpace=wrap;" vertex="1" parent="1">
          <mxGeometry x="185" y="450" width="100" height="60" as="geometry" />
        </mxCell>
        <mxCell id="6V_RxtZbmtCBJ1EOpkRF-287" value="" style="ellipse;html=1;shape=endState;fillColor=#000000;strokeColor=#ff0000;" vertex="1" parent="1">
          <mxGeometry x="220" y="540" width="30" height="30" as="geometry" />
        </mxCell>
      </root>
    </mxGraphModel>
  </diagram>
</mxfile>
